<mxfile host="app.diagrams.net" modified="2023-10-29T05:16:33.340Z" agent="Mozilla/5.0 (Windows NT 10.0; Win64; x64) AppleWebKit/537.36 (KHTML, like Gecko) Chrome/118.0.0.0 Safari/537.36" etag="5XbR-52WUoayhykeE3FJ" version="22.0.8" type="device">
  <diagram name="Page-1" id="JH8mKb6uM0Cwd8Qrf0DN">
    <mxGraphModel dx="880" dy="1578" grid="1" gridSize="10" guides="1" tooltips="1" connect="1" arrows="1" fold="1" page="1" pageScale="1" pageWidth="850" pageHeight="1100" math="0" shadow="0">
      <root>
        <mxCell id="0" />
        <mxCell id="1" parent="0" />
        <mxCell id="50gcBJBjnqEBOGdZFFud-20" value="" style="rounded=0;whiteSpace=wrap;html=1;fillColor=none;" parent="1" vertex="1">
          <mxGeometry x="170" y="20" width="500" height="720" as="geometry" />
        </mxCell>
        <mxCell id="50gcBJBjnqEBOGdZFFud-1" value="User" style="shape=umlActor;verticalLabelPosition=bottom;verticalAlign=top;html=1;outlineConnect=0;" parent="1" vertex="1">
          <mxGeometry x="31" y="348" width="30" height="60" as="geometry" />
        </mxCell>
        <mxCell id="50gcBJBjnqEBOGdZFFud-26" style="rounded=0;orthogonalLoop=1;jettySize=auto;html=1;exitX=0;exitY=0.5;exitDx=0;exitDy=0;endArrow=none;endFill=0;entryX=0.5;entryY=0.5;entryDx=0;entryDy=0;entryPerimeter=0;" parent="1" source="50gcBJBjnqEBOGdZFFud-6" target="50gcBJBjnqEBOGdZFFud-1" edge="1">
          <mxGeometry relative="1" as="geometry">
            <mxPoint x="80" y="410" as="targetPoint" />
          </mxGeometry>
        </mxCell>
        <mxCell id="50gcBJBjnqEBOGdZFFud-6" value="Profile Setup" style="ellipse;whiteSpace=wrap;html=1;" parent="1" vertex="1">
          <mxGeometry x="320" y="30" width="120" height="50" as="geometry" />
        </mxCell>
        <mxCell id="50gcBJBjnqEBOGdZFFud-7" value="View Active Users" style="ellipse;whiteSpace=wrap;html=1;" parent="1" vertex="1">
          <mxGeometry x="320" y="110" width="120" height="50" as="geometry" />
        </mxCell>
        <mxCell id="50gcBJBjnqEBOGdZFFud-8" value="Block/Unblock Users" style="ellipse;whiteSpace=wrap;html=1;" parent="1" vertex="1">
          <mxGeometry x="320" y="190" width="120" height="50" as="geometry" />
        </mxCell>
        <mxCell id="50gcBJBjnqEBOGdZFFud-9" value="Mute Notifications" style="ellipse;whiteSpace=wrap;html=1;" parent="1" vertex="1">
          <mxGeometry x="320" y="270" width="120" height="50" as="geometry" />
        </mxCell>
        <mxCell id="50gcBJBjnqEBOGdZFFud-10" value="Text Messages" style="ellipse;whiteSpace=wrap;html=1;" parent="1" vertex="1">
          <mxGeometry x="320" y="350" width="120" height="50" as="geometry" />
        </mxCell>
        <mxCell id="50gcBJBjnqEBOGdZFFud-11" value="Voice Call" style="ellipse;whiteSpace=wrap;html=1;" parent="1" vertex="1">
          <mxGeometry x="320" y="430" width="120" height="50" as="geometry" />
        </mxCell>
        <mxCell id="50gcBJBjnqEBOGdZFFud-12" value="Video Call" style="ellipse;whiteSpace=wrap;html=1;" parent="1" vertex="1">
          <mxGeometry x="320" y="510" width="120" height="50" as="geometry" />
        </mxCell>
        <mxCell id="50gcBJBjnqEBOGdZFFud-13" value="View Last Seen" style="ellipse;whiteSpace=wrap;html=1;" parent="1" vertex="1">
          <mxGeometry x="530" y="110" width="120" height="50" as="geometry" />
        </mxCell>
        <mxCell id="50gcBJBjnqEBOGdZFFud-14" value="Mute Mic" style="ellipse;whiteSpace=wrap;html=1;" parent="1" vertex="1">
          <mxGeometry x="530" y="430" width="120" height="50" as="geometry" />
        </mxCell>
        <mxCell id="50gcBJBjnqEBOGdZFFud-15" value="Turn-off Camera" style="ellipse;whiteSpace=wrap;html=1;" parent="1" vertex="1">
          <mxGeometry x="530" y="510" width="120" height="50" as="geometry" />
        </mxCell>
        <mxCell id="50gcBJBjnqEBOGdZFFud-16" value="Multicast Broadcast" style="ellipse;whiteSpace=wrap;html=1;" parent="1" vertex="1">
          <mxGeometry x="320" y="590" width="120" height="50" as="geometry" />
        </mxCell>
        <mxCell id="50gcBJBjnqEBOGdZFFud-18" value="Traffic Prioritization" style="ellipse;whiteSpace=wrap;html=1;" parent="1" vertex="1">
          <mxGeometry x="320" y="670" width="120" height="50" as="geometry" />
        </mxCell>
        <mxCell id="50gcBJBjnqEBOGdZFFud-21" value="AndroCom Android App" style="text;html=1;align=center;verticalAlign=middle;resizable=0;points=[];autosize=1;strokeColor=none;fillColor=none;" parent="1" vertex="1">
          <mxGeometry x="350" y="-10" width="150" height="30" as="geometry" />
        </mxCell>
        <mxCell id="50gcBJBjnqEBOGdZFFud-22" value="&amp;lt;&amp;lt;extend&amp;gt;&amp;gt;" style="html=1;verticalAlign=bottom;labelBackgroundColor=none;endArrow=open;endFill=0;dashed=1;rounded=0;entryX=1;entryY=0.5;entryDx=0;entryDy=0;exitX=0;exitY=0.5;exitDx=0;exitDy=0;" parent="1" source="50gcBJBjnqEBOGdZFFud-15" target="50gcBJBjnqEBOGdZFFud-12" edge="1">
          <mxGeometry width="160" relative="1" as="geometry">
            <mxPoint x="530" y="590" as="sourcePoint" />
            <mxPoint x="370" y="590" as="targetPoint" />
          </mxGeometry>
        </mxCell>
        <mxCell id="50gcBJBjnqEBOGdZFFud-23" value="&amp;lt;&amp;lt;extend&amp;gt;&amp;gt;" style="html=1;verticalAlign=bottom;labelBackgroundColor=none;endArrow=open;endFill=0;dashed=1;rounded=0;entryX=0;entryY=0.5;entryDx=0;entryDy=0;exitX=0;exitY=0.5;exitDx=0;exitDy=0;" parent="1" source="50gcBJBjnqEBOGdZFFud-14" edge="1">
          <mxGeometry width="160" relative="1" as="geometry">
            <mxPoint x="600" y="454.71" as="sourcePoint" />
            <mxPoint x="440" y="454.71" as="targetPoint" />
          </mxGeometry>
        </mxCell>
        <mxCell id="50gcBJBjnqEBOGdZFFud-24" value="&lt;p style=&quot;line-height: 130%;&quot;&gt;&amp;lt;&amp;lt;extend&amp;gt;&amp;gt;&lt;/p&gt;" style="html=1;verticalAlign=bottom;labelBackgroundColor=none;endArrow=open;endFill=0;dashed=1;rounded=0;exitX=0;exitY=1;exitDx=0;exitDy=0;entryX=1;entryY=0;entryDx=0;entryDy=0;" parent="1" source="50gcBJBjnqEBOGdZFFud-14" target="50gcBJBjnqEBOGdZFFud-12" edge="1">
          <mxGeometry x="0.0971" y="3" width="160" relative="1" as="geometry">
            <mxPoint x="530" y="500" as="sourcePoint" />
            <mxPoint x="370" y="500" as="targetPoint" />
            <mxPoint as="offset" />
          </mxGeometry>
        </mxCell>
        <mxCell id="50gcBJBjnqEBOGdZFFud-25" value="&amp;lt;&amp;lt;extend&amp;gt;&amp;gt;" style="html=1;verticalAlign=bottom;labelBackgroundColor=none;endArrow=open;endFill=0;dashed=1;rounded=0;entryX=1;entryY=0.5;entryDx=0;entryDy=0;exitX=0;exitY=0.5;exitDx=0;exitDy=0;" parent="1" source="50gcBJBjnqEBOGdZFFud-13" target="50gcBJBjnqEBOGdZFFud-7" edge="1">
          <mxGeometry width="160" relative="1" as="geometry">
            <mxPoint x="560" y="200" as="sourcePoint" />
            <mxPoint x="400" y="200" as="targetPoint" />
          </mxGeometry>
        </mxCell>
        <mxCell id="50gcBJBjnqEBOGdZFFud-27" style="rounded=0;orthogonalLoop=1;jettySize=auto;html=1;exitX=0;exitY=0.5;exitDx=0;exitDy=0;endArrow=none;endFill=0;entryX=0.5;entryY=0.5;entryDx=0;entryDy=0;entryPerimeter=0;" parent="1" source="50gcBJBjnqEBOGdZFFud-7" target="50gcBJBjnqEBOGdZFFud-1" edge="1">
          <mxGeometry relative="1" as="geometry">
            <mxPoint x="80" y="410" as="targetPoint" />
            <mxPoint x="330" y="75" as="sourcePoint" />
          </mxGeometry>
        </mxCell>
        <mxCell id="50gcBJBjnqEBOGdZFFud-28" style="rounded=0;orthogonalLoop=1;jettySize=auto;html=1;exitX=0;exitY=0.5;exitDx=0;exitDy=0;endArrow=none;endFill=0;entryX=0.5;entryY=0.5;entryDx=0;entryDy=0;entryPerimeter=0;" parent="1" source="50gcBJBjnqEBOGdZFFud-8" target="50gcBJBjnqEBOGdZFFud-1" edge="1">
          <mxGeometry relative="1" as="geometry">
            <mxPoint x="80" y="410" as="targetPoint" />
            <mxPoint x="330" y="145" as="sourcePoint" />
          </mxGeometry>
        </mxCell>
        <mxCell id="50gcBJBjnqEBOGdZFFud-29" style="rounded=0;orthogonalLoop=1;jettySize=auto;html=1;endArrow=none;endFill=0;exitX=0;exitY=0.5;exitDx=0;exitDy=0;entryX=0.5;entryY=0.5;entryDx=0;entryDy=0;entryPerimeter=0;" parent="1" source="50gcBJBjnqEBOGdZFFud-9" target="50gcBJBjnqEBOGdZFFud-1" edge="1">
          <mxGeometry relative="1" as="geometry">
            <mxPoint x="80" y="410" as="targetPoint" />
            <mxPoint x="330" y="225" as="sourcePoint" />
          </mxGeometry>
        </mxCell>
        <mxCell id="50gcBJBjnqEBOGdZFFud-30" style="rounded=0;orthogonalLoop=1;jettySize=auto;html=1;endArrow=none;endFill=0;exitX=0;exitY=0.5;exitDx=0;exitDy=0;entryX=0.5;entryY=0.5;entryDx=0;entryDy=0;entryPerimeter=0;" parent="1" source="50gcBJBjnqEBOGdZFFud-10" target="50gcBJBjnqEBOGdZFFud-1" edge="1">
          <mxGeometry relative="1" as="geometry">
            <mxPoint x="80" y="410" as="targetPoint" />
            <mxPoint x="330" y="305" as="sourcePoint" />
          </mxGeometry>
        </mxCell>
        <mxCell id="50gcBJBjnqEBOGdZFFud-31" style="rounded=0;orthogonalLoop=1;jettySize=auto;html=1;endArrow=none;endFill=0;exitX=0;exitY=0.5;exitDx=0;exitDy=0;entryX=0.5;entryY=0.5;entryDx=0;entryDy=0;entryPerimeter=0;" parent="1" source="50gcBJBjnqEBOGdZFFud-11" target="50gcBJBjnqEBOGdZFFud-1" edge="1">
          <mxGeometry relative="1" as="geometry">
            <mxPoint x="80" y="410" as="targetPoint" />
            <mxPoint x="330" y="385" as="sourcePoint" />
          </mxGeometry>
        </mxCell>
        <mxCell id="50gcBJBjnqEBOGdZFFud-32" style="rounded=0;orthogonalLoop=1;jettySize=auto;html=1;endArrow=none;endFill=0;exitX=0;exitY=0.5;exitDx=0;exitDy=0;entryX=0.5;entryY=0.5;entryDx=0;entryDy=0;entryPerimeter=0;" parent="1" source="50gcBJBjnqEBOGdZFFud-12" target="50gcBJBjnqEBOGdZFFud-1" edge="1">
          <mxGeometry relative="1" as="geometry">
            <mxPoint x="65" y="420" as="targetPoint" />
            <mxPoint x="330" y="465" as="sourcePoint" />
          </mxGeometry>
        </mxCell>
        <mxCell id="50gcBJBjnqEBOGdZFFud-33" style="rounded=0;orthogonalLoop=1;jettySize=auto;html=1;endArrow=none;endFill=0;exitX=0;exitY=0.5;exitDx=0;exitDy=0;entryX=0.5;entryY=0.5;entryDx=0;entryDy=0;entryPerimeter=0;" parent="1" source="50gcBJBjnqEBOGdZFFud-18" target="50gcBJBjnqEBOGdZFFud-1" edge="1">
          <mxGeometry relative="1" as="geometry">
            <mxPoint x="65" y="420" as="targetPoint" />
            <mxPoint x="330" y="545" as="sourcePoint" />
          </mxGeometry>
        </mxCell>
        <mxCell id="50gcBJBjnqEBOGdZFFud-35" style="rounded=0;orthogonalLoop=1;jettySize=auto;html=1;endArrow=none;endFill=0;exitX=0;exitY=0.5;exitDx=0;exitDy=0;entryX=0.5;entryY=0.5;entryDx=0;entryDy=0;entryPerimeter=0;" parent="1" source="50gcBJBjnqEBOGdZFFud-16" target="50gcBJBjnqEBOGdZFFud-1" edge="1">
          <mxGeometry relative="1" as="geometry">
            <mxPoint x="65" y="420" as="targetPoint" />
            <mxPoint x="330" y="705" as="sourcePoint" />
          </mxGeometry>
        </mxCell>
      </root>
    </mxGraphModel>
  </diagram>
</mxfile>
